HIERARCHY
ROOT Hips
{
  OFFSET 90.7885 88.945 -76.2838
  CHANNELS 6 Xposition Yposition Zposition Zrotation Xrotation Yrotation
  JOINT LeftUpLeg
  {
    OFFSET 8.64259 1.95398 -2.38835
    CHANNELS 3 Zrotation Xrotation Yrotation
    JOINT LeftLeg
    {
      OFFSET 43.7702 0 0
      CHANNELS 3 Zrotation Xrotation Yrotation
      JOINT LeftFoot
      {
        OFFSET 40.6238 0 0
        CHANNELS 3 Zrotation Xrotation Yrotation
        JOINT LeftToeBase
        {
          OFFSET 12.7242 0 0
          CHANNELS 3 Zrotation Xrotation Yrotation
          End Site
          {
            OFFSET 0 0 0
          }
        }
      }
    }
  }
  JOINT RightUpLeg
  {
    OFFSET -8.2249 1.95398 -2.59336
    CHANNELS 3 Zrotation Xrotation Yrotation
    JOINT RightLeg
    {
      OFFSET 43.5653 0 0
      CHANNELS 3 Zrotation Xrotation Yrotation
      JOINT RightFoot
      {
        OFFSET 40.6238 0 0
        CHANNELS 3 Zrotation Xrotation Yrotation
        JOINT RightToeBase
        {
          OFFSET 12.7242 0 0
          CHANNELS 3 Zrotation Xrotation Yrotation
          End Site
          {
            OFFSET 0 0 0
          }
        }
      }
    }
  }
  JOINT Spine
  {
    OFFSET 0.165834 0.87714 6.61349
    CHANNELS 3 Zrotation Xrotation Yrotation
    JOINT Spine1
    {
      OFFSET 7.38963 1.71661e-005 0
      CHANNELS 3 Zrotation Xrotation Yrotation
      JOINT Spine2
      {
        OFFSET 11.9445 1.14441e-005 0
        CHANNELS 3 Zrotation Xrotation Yrotation
        JOINT Spine3
        {
          OFFSET 14.7254 4.19617e-005 0
          CHANNELS 3 Zrotation Xrotation Yrotation
          JOINT Spine4
          {
            OFFSET 10.9679 0 0
            CHANNELS 3 Zrotation Xrotation Yrotation
            JOINT RightShoulder
            {
              OFFSET 2.46616 -1.6653 3.69651
              CHANNELS 3 Zrotation Xrotation Yrotation
              JOINT RightArm
              {
                OFFSET 13.0012 0 0
                CHANNELS 3 Zrotation Xrotation Yrotation
                JOINT RightForeArm
                {
                  OFFSET 28.7848 1.52588e-005 0
                  CHANNELS 3 Zrotation Xrotation Yrotation
                  JOINT RightHand
                  {
                    OFFSET 26.5688 1.52588e-005 0
                    CHANNELS 3 Zrotation Xrotation Yrotation
                    End Site
                    {
                      OFFSET 0 0 0
                    }
                  }
                }
              }
            }
            JOINT LeftShoulder
            {
              OFFSET 2.38034 -1.29275 -3.7523
              CHANNELS 3 Zrotation Xrotation Yrotation
              JOINT LeftArm
              {
                OFFSET 16.3182 6.10352e-005 0
                CHANNELS 3 Zrotation Xrotation Yrotation
                JOINT LeftForeArm
                {
                  OFFSET 27.0901 0 0
                  CHANNELS 3 Zrotation Xrotation Yrotation
                  JOINT LeftHand
                  {
                    OFFSET 24.5451 1.52588e-005 0
                    CHANNELS 3 Zrotation Xrotation Yrotation
                    End Site
                    {
                      OFFSET 0 0 0
                    }
                  }
                }
              }
            }
            JOINT Neck
            {
              OFFSET 5.0226 -0.0266342 0
              CHANNELS 3 Zrotation Xrotation Yrotation
              JOINT Head
              {
                OFFSET 6.69363 2.86102e-005 0
                CHANNELS 3 Zrotation Xrotation Yrotation
                End Site
                {
                  OFFSET 0 0 0
                }
              }
            }
          }
        }
      }
    }
  }
}
MOTION
Frames:	15
Frame Time:	0.0416667
37.3212 89.5397 -272.548 64.7346 -73.445 66.3404 -168.702 -4.94865 99.3191 -33.7447 19.7346 -1.91763 77.4452 8.89029 5.55999 57.4858 1.13694 -11.5584 -178.7 50.7698 89.7213 -82.7314 6.33777 -1.95918 87.2133 -13.0962 -1.03539 7.42531 -1.23314 5.41892 -2.40259 7.75276 -90.6518 11.359 -5.08474 -0.78824 -0.302047 -5.11447 -0.563112 -22.904 -4.61232 -2.28298 -2.89136 -4.61231 -2.28299 96.5839 -14.0294 -97.4485 60.0826 -17.6436 48.0307 -37.2105 -12.221 -67.5125 -25.7801 1.27033 -21.9488 -86.907 -30.367 79.3384 -5.6454 -7.32887 -58.408 64.5366 -26.0188 -100.843 15.8386 0.456579 -0.957289 34.1627 1.95459 -9.09692 -14.0466 5.302 5.33616 
37.9936 90.8268 -264.581 67.1533 -77.4457 68.3295 -169.981 -15.6013 97.6713 -23.4976 17.5433 -0.61191 62.0897 1.71666 6.05981 61.5213 0.991475 -13.4419 -177.46 49.9333 89.9565 -71.5792 2.90339 -2.64845 82.0715 -10.9104 -1.95717 10.223 -1.05 4.89411 -2.56383 7.9106 -90.7622 11.0393 -5.457 -0.992763 -0.620318 -5.49538 -0.750923 -23.2306 -4.90583 -2.59048 -3.21798 -4.90582 -2.59046 95.8781 -13.0436 -99.734 57.8927 -16.6951 50.7907 -35.6928 -11.557 -66.8518 -23.8944 1.21672 -22.3617 -86.5375 -29.0754 79.7201 -6.70013 -12.4021 -55.0622 59.3466 -26.4442 -104.889 21.4506 0.875273 0.278858 36.7299 4.57063 -7.22532 -18.185 6.93041 5.40135 
38.4078 92.2589 -255.871 58.301 -79.6992 61.8624 -171.211 -20.3895 98.023 -19.1408 15.9905 1.97145 51.7598 -3.17236 3.4194 42.3539 2.03171 -8.22757 -178.466 48.6184 93.6761 -57.3439 -3.31289 -2.36228 75.5455 -8.56809 -3.8982 13.332 -1.76766 5.78681 -2.51153 7.87834 -91.2387 11.0756 -5.57378 -1.92687 -0.584484 -5.65315 -1.67903 -23.1822 -4.73686 -3.51549 -3.16954 -4.73685 -3.51547 95.4418 -11.5536 -101.573 56.5402 -15.0726 52.3424 -33.1898 -10.6695 -66.9965 -23.6793 1.75125 -24.4497 -85.7298 -28.2506 81.1033 -6.16919 -12.9651 -54.0649 58.4168 -26.6309 -105.326 17.6388 0.537251 -1.17929 38.7039 6.83339 -5.15571 -21.2252 8.09346 5.13392 
38.8312 93.2042 -247.41 51.7971 -80.6254 56.1645 -172.507 -21.8317 96.8573 -21.9863 17.7937 4.04022 52.0507 -3.32272 4.26526 24.4881 4.61912 -5.42889 -179.789 45.9792 94.9918 -43.409 -10.9523 -1.63765 73.0749 -7.45686 -2.83041 12.3077 -2.12065 6.4543 -2.49657 7.80157 -91.5365 11.211 -5.683 -2.50017 -0.449451 -5.7875 -2.24701 -23.038 -4.66908 -4.09436 -3.02537 -4.66908 -4.09436 94.5527 -10.6631 -104.526 55.3939 -12.2378 53.7856 -32.0551 -10.8505 -68.1008 -26.5017 2.53351 -25.9609 -85.775 -28.6392 81.1089 -3.44085 -10.4451 -52.6435 46.9723 -23.4834 -106.916 11.6917 -1.72454 -17.6942 37.8394 8.54089 -3.47734 -21.9816 8.87902 5.03089 
39.026 93.2919 -239.515 47.5959 -81.4118 51.2043 -172.357 -21.9374 96.0069 -28.2546 19.867 3.41681 58.6474 -0.109352 6.29523 14.3045 8.2648 -7.07694 179.872 43.4489 95.1715 -32.463 -17.5482 -1.43688 72.2738 -7.09639 -3.42748 11.8739 -3.56562 8.86003 -2.38576 7.68355 -91.5017 11.4509 -5.44786 -2.43865 -0.210401 -5.54988 -2.19597 -22.7937 -4.4633 -3.96472 -2.78104 -4.46331 -3.96472 93.7276 -12.6439 -105.811 52.2051 -9.64648 53.0529 -28.4685 -10.8205 -68.3382 -24.0379 2.27448 -25.6506 -85.8348 -28.5551 80.9699 -2.66418 -3.76105 -52.261 49.5117 -22.9608 -102.908 13.5789 -1.74398 -16.1308 35.1524 8.38616 -4.56908 -20.2175 8.89522 7.14145 
38.9977 92.8077 -232.005 51.5989 -82.6061 53.6848 -171.388 -21.691 95.7186 -35.9068 19.2129 2.21771 60.7734 1.06675 5.49345 18.7938 8.54784 -8.77431 178.614 41.0792 95.5112 -28.2878 -19.6257 -0.842816 71.6053 -6.70169 -4.57644 12.6666 -3.76906 9.1671 -2.28372 7.69249 -91.348 11.4431 -5.17309 -2.16032 -0.219005 -5.26314 -1.93007 -22.8008 -4.28477 -3.6167 -2.78815 -4.28477 -3.61669 93.2028 -15.7469 -105.655 48.3317 -7.16336 49.8901 -27.4898 -11.2353 -68.6973 -25.0459 2.28578 -24.584 -86.6992 -31.6653 80.0598 -0.466177 2.67592 -51.043 58.5653 -23.3681 -98.204 20.9966 0.246601 -2.46789 33.0757 8.14935 -4.24486 -19.2258 8.54932 6.99615 
38.7674 92.0472 -224.595 64.346 -83.818 64.8837 -170.435 -19.7988 95.6641 -46.8559 16.4125 1.88317 55.9686 -1.0415 4.01706 30.3419 5.31954 -8.16553 177.25 39.69 95.9335 -31.3249 -17.3557 -0.300793 69.2962 -5.27556 -4.90661 15.1963 -0.661922 3.69096 -2.22184 7.81124 -91.126 11.2179 -4.94552 -1.75511 -0.444478 -5.01795 -1.53528 -23.0281 -4.18932 -3.16202 -3.01547 -4.18931 -3.16201 92.3044 -20.0946 -105.857 43.5497 -4.39512 45.0604 -30.2265 -13.9698 -69.8329 -29.4532 2.75766 -24.9076 -87.6985 -36.5477 79.4215 2.69004 9.86362 -48.6276 62.2062 -22.7854 -94.5617 18.7989 0.475738 -1.36983 32.779 7.8163 -3.80709 -19.6071 8.15887 6.0422 
38.566 91.4086 -217.058 80.59 -84.7553 81.1096 -167.731 -15.5372 97.9241 -59.332 15.5838 1.72421 52.3331 -3.08231 8.64428 36.6825 3.86447 -8.15911 176.08 38.5872 96.96 -37.6105 -18.7159 0.366471 61.139 -0.672141 -4.98834 13.7774 -1.65823 5.51665 -2.02994 7.9178 -91.0525 11.008 -4.52859 -1.66128 -0.655912 -4.5973 -1.46002 -23.2307 -3.8199 -2.94676 -3.21803 -3.8199 -2.94676 91.5204 -24.1672 -105.907 39.2366 -0.44571 39.5058 -31.7243 -16.5862 -71.1834 -31.3408 2.46367 -23.2273 -89.2026 -41.8252 78.1307 4.25961 17.1531 -44.8906 62.8391 -21.6829 -91.6775 16.0042 0.0118216 -3.70005 31.0143 7.10925 -3.87668 -18.5063 7.52775 6.03211 
38.1766 90.2549 -209.761 95.7544 -85.1766 96.5864 -165.746 -9.61086 100.494 -72.2174 9.34043 2.44112 56.6951 -0.739828 7.15559 33.3057 4.31753 -7.72719 174.537 38.1098 98.4624 -48.6023 -19.7619 1.3604 70.2242 -5.41683 -6.08424 0.930829 -1.29098 5.99489 -1.79954 7.95096 -91.0936 10.9409 -4.08863 -1.78835 -0.724584 -4.16336 -1.60645 -23.2875 -3.36221 -2.93516 -3.27486 -3.36221 -2.93516 90.5542 -26.7171 -106.926 35.9704 5.00116 33.7882 -30.9151 -17.5021 -71.7139 -33.6735 2.59571 -22.2886 -90.7719 -48.7924 77.2976 5.43476 22.4541 -39.5267 65.6455 -19.9282 -89.0659 18.7709 0.950664 1.20458 27.7175 7.35702 -0.630922 -15.2449 6.88142 3.65997 
37.4901 88.9407 -202.869 106.535 -85.4983 109.417 -164.842 -1.22856 103.697 -84.6839 5.29803 4.17912 60.5259 0.880653 6.25049 34.0898 5.05095 -9.16345 173.606 35.5234 101.66 -54.9872 -19.3914 2.11538 76.1355 -9.27495 -8.28489 8.29605 -2.97508 7.9983 -1.4014 8.02821 -91.3502 10.7801 -3.41343 -2.37099 -0.888218 -3.51445 -2.2184 -23.4285 -2.54339 -3.28702 -3.41585 -2.5434 -3.28703 90.6 -29.3922 -105.796 34.3113 8.81636 26.0098 -31.238 -17.7549 -73.26 -33.0476 2.17141 -21.0028 -91.0339 -52.6887 77.7923 1.27714 27.1758 -33.8358 62.6474 -16.4108 -87.0775 18.2679 0.375086 -1.80542 25.5585 6.71452 1.44464 -11.6524 5.69539 2.76262 
36.6903 87.9057 -196.346 116.091 -85.4626 122.765 -166.188 9.22854 107.578 -95.7873 5.32715 6.37409 64.0135 2.29424 7.91657 32.4143 6.23462 -10.3654 173.014 30.7466 105.997 -57.0347 -18.6178 3.20997 81.8142 -12.9197 -9.2243 6.98053 -2.74679 7.7114 -0.967444 8.17269 -91.7788 10.4773 -2.743 -3.29074 -1.19464 -2.8851 -3.16694 -23.7062 -1.6281 -3.96212 -3.69357 -1.6281 -3.96212 90.3122 -32.2624 -105.317 33.4893 10.8604 16.0498 -26.7337 -15.8979 -72.9281 -34.0215 2.11588 -18.9802 -91.767 -55.5495 77.3771 -5.33373 28.3267 -24.4704 64.2601 -13.1659 -85.3013 14.0542 -0.00404472 -3.69158 25.9664 6.30153 3.49041 -10.5415 4.74174 0.542269 
36.3675 87.2756 -189.705 113.77 -85.773 122.092 -170.124 19.4445 107.725 -103.537 6.60034 7.53192 65.9558 3.28458 9.45679 30.9908 7.02966 -11.0544 173.292 26.0793 107.814 -57.6992 -17.9402 3.77967 87.6405 -16.3091 -9.17385 6.60284 -3.97518 9.56333 -0.634673 8.18456 -91.9963 10.4532 -2.17952 -3.77422 -1.22107 -2.34341 -3.67481 -23.7162 -0.945629 -4.2539 -3.70351 -0.94563 -4.25389 89.9948 -32.8887 -105.709 33.5208 11.2262 5.93778 -26.0018 -14.4445 -75.2835 -32.7082 2.30333 -19.8403 -91.5305 -56.4696 77.9044 -14.0518 25.6485 -11.7314 67.0274 -12.2932 -85.9209 13.8284 -0.276775 -5.67694 27.6265 5.82393 3.9886 -11.7397 4.04198 0.282937 
36.2598 86.733 -182.897 111.952 -85.3332 118.427 -173.557 27.7917 104.054 -107.228 9.40783 7.95521 68.0483 4.65253 14.7691 31.2968 10.0886 -15.7154 173.5 20.8225 105.787 -58.5428 -18.8892 3.51772 93.3865 -19.4733 -8.7527 6.52373 -4.00223 9.60259 -0.442853 8.13311 -91.8382 10.5679 -1.72663 -3.49847 -1.10636 -1.87884 -3.41922 -23.6055 -0.596266 -3.8551 -3.59286 -0.596259 -3.85511 89.223 -32.3767 -107.366 31.9829 10.8032 -1.49647 -26.6534 -13.6474 -78.469 -31.1716 1.59375 -17.6055 -90.8606 -57.6921 79.0814 -19.1433 22.804 1.73856 68.6339 -15.2825 -87.8179 13.2435 -0.458323 -7.0516 27.2903 5.04808 4.75367 -11.0091 3.00555 0.511163 
36.1184 86.7157 -175.865 103.219 -85.7366 107.377 -176.782 36.0331 100.708 -106.107 4.67784 7.60515 70.8306 5.63208 9.10343 30.9322 10.4772 -16.1134 173.901 14.8479 103.208 -56.1957 -20.5392 2.98764 97.3528 -22.0263 -9.23098 7.15416 -5.04367 11.1646 -0.0542048 7.88675 -91.4389 11.0815 -0.775377 -2.78888 -0.592133 -0.897325 -2.7521 -23.1031 0.0982437 -2.89291 -3.09045 0.0982362 -2.89292 88.0866 -33.935 -108.909 27.1867 7.56901 -6.08201 -28.3233 -11.5333 -82.9294 -33.447 1.62641 -16.9893 -88.4471 -57.5971 82.3881 -19.7715 24.1748 13.1992 69.0806 -19.6933 -88.9968 14.792 -0.158918 -4.81778 25.8767 2.28776 2.07845 -10.0592 1.28704 2.14787 
36.0088 87.4478 -168.365 92.7892 -87.4974 94.1529 -177.033 41.9192 96.8915 -100.714 2.63426 6.87379 73.3673 6.70901 8.3292 29.5697 10.4645 -15.4549 174.437 8.09724 99.887 -52.0633 -20.6257 1.81768 99.2857 -22.0984 -6.74503 7.16218 -5.43742 11.7601 0.695232 7.72263 -91.143 11.4293 0.849785 -2.36023 -0.243641 0.745123 -2.39532 -22.7673 1.51968 -1.99596 -2.75463 1.51968 -1.99596 89.8897 -29.6641 -107.111 25.4149 4.42549 -8.98963 -29.9768 -8.5796 -87.3133 -30.5448 1.70773 -18.616 -87.9389 -57.1443 83.0176 -18.5821 27.4201 20.6882 66.7561 -22.7599 -89.7325 15.6485 -0.0795624 -4.2812 25.8239 0.0940087 4.27844 -9.88586 -1.47734 0.121899 
